<svg width="26" height="26" viewBox="0 0 26 26" fill="none" xmlns="http://www.w3.org/2000/svg">
<g id="Frame">
<path id="Vector" d="M11.9167 18.4167H14.0833V14.0833H18.4167V11.9167H14.0833V7.58332H11.9167V11.9167H7.58333V14.0833H11.9167V18.4167ZM13 23.8333C11.5014 23.8333 10.0931 23.5489 8.775 22.9802C7.45695 22.4114 6.31042 21.6396 5.33542 20.6646C4.36042 19.6896 3.58854 18.543 3.01979 17.225C2.45104 15.9069 2.16667 14.4986 2.16667 13C2.16667 11.5014 2.45104 10.093 3.01979 8.77499C3.58854 7.45693 4.36042 6.31041 5.33542 5.33541C6.31042 4.36041 7.45695 3.58853 8.775 3.01978C10.0931 2.45103 11.5014 2.16666 13 2.16666C14.4986 2.16666 15.9069 2.45103 17.225 3.01978C18.5431 3.58853 19.6896 4.36041 20.6646 5.33541C21.6396 6.31041 22.4115 7.45693 22.9802 8.77499C23.549 10.093 23.8333 11.5014 23.8333 13C23.8333 14.4986 23.549 15.9069 22.9802 17.225C22.4115 18.543 21.6396 19.6896 20.6646 20.6646C19.6896 21.6396 18.5431 22.4114 17.225 22.9802C15.9069 23.5489 14.4986 23.8333 13 23.8333ZM13 21.6667C15.4194 21.6667 17.4688 20.8271 19.1479 19.1479C20.8271 17.4687 21.6667 15.4194 21.6667 13C21.6667 10.5805 20.8271 8.53124 19.1479 6.85207C17.4688 5.17291 15.4194 4.33332 13 4.33332C10.5806 4.33332 8.53125 5.17291 6.85208 6.85207C5.17292 8.53124 4.33333 10.5805 4.33333 13C4.33333 15.4194 5.17292 17.4687 6.85208 19.1479C8.53125 20.8271 10.5806 21.6667 13 21.6667Z" fill="#52616A"/>
</g>
</svg>
