<svg width="26" height="26" viewBox="0 0 26 26" fill="none" xmlns="http://www.w3.org/2000/svg">
<g id="Frame">
<path id="Vector" d="M14.5167 23.725L13 22.2083L16.8458 18.3625L7.63749 9.15416L3.79166 13L2.27499 11.4833L3.79166 9.91249L2.27499 8.39583L4.54999 6.12083L3.03333 4.54999L4.54999 3.03333L6.12083 4.54999L8.39583 2.27499L9.91249 3.79166L11.4833 2.27499L13 3.79166L9.15416 7.63749L18.3625 16.8458L22.2083 13L23.725 14.5167L22.2083 16.0875L23.725 17.6042L21.45 19.8792L22.9667 21.45L21.45 22.9667L19.8792 21.45L17.6042 23.725L16.0875 22.2083L14.5167 23.725Z" fill="#52616A"/>
</g>
</svg>
