<svg width="26" height="26" viewBox="0 0 26 26" fill="none" xmlns="http://www.w3.org/2000/svg">
<g id="Frame">
<path id="Vector" d="M9.75 3.24999V1.08333H16.25V3.24999H9.75ZM11.9167 15.1667H14.0833V8.66666H11.9167V15.1667ZM13 23.8333C11.6639 23.8333 10.4045 23.576 9.22188 23.0615C8.03924 22.5469 7.00556 21.8472 6.12083 20.9625C5.23611 20.0778 4.53646 19.0441 4.02188 17.8615C3.50729 16.6788 3.25 15.4194 3.25 14.0833C3.25 12.7472 3.50729 11.4878 4.02188 10.3052C4.53646 9.12256 5.23611 8.08888 6.12083 7.20416C7.00556 6.31944 8.03924 5.61979 9.22188 5.1052C10.4045 4.59062 11.6639 4.33333 13 4.33333C14.1194 4.33333 15.1938 4.51388 16.2229 4.87499C17.2521 5.23611 18.2181 5.75972 19.1208 6.44583L20.6375 4.92916L22.1542 6.44583L20.6375 7.96249C21.3236 8.86527 21.8472 9.83124 22.2083 10.8604C22.5694 11.8896 22.75 12.9639 22.75 14.0833C22.75 15.4194 22.4927 16.6788 21.9781 17.8615C21.4635 19.0441 20.7639 20.0778 19.8792 20.9625C18.9944 21.8472 17.9608 22.5469 16.7781 23.0615C15.5955 23.576 14.3361 23.8333 13 23.8333ZM13 21.6667C15.0944 21.6667 16.8819 20.9264 18.3625 19.4458C19.8431 17.9653 20.5833 16.1778 20.5833 14.0833C20.5833 11.9889 19.8431 10.2014 18.3625 8.72083C16.8819 7.24027 15.0944 6.49999 13 6.49999C10.9056 6.49999 9.11806 7.24027 7.6375 8.72083C6.15694 10.2014 5.41667 11.9889 5.41667 14.0833C5.41667 16.1778 6.15694 17.9653 7.6375 19.4458C9.11806 20.9264 10.9056 21.6667 13 21.6667Z" fill="#52616A"/>
</g>
</svg>
