<svg width="26" height="26" viewBox="0 0 26 26" fill="none" xmlns="http://www.w3.org/2000/svg">
<g id="Frame">
<path id="Vector" d="M11.9167 17.3333C13.2708 17.3333 14.4219 16.8594 15.3698 15.9115C16.3177 14.9636 16.7917 13.8125 16.7917 12.4583C16.7917 11.1042 16.3177 9.95314 15.3698 9.00522C14.4219 8.0573 13.2708 7.58334 11.9167 7.58334C10.5625 7.58334 9.41146 8.0573 8.46354 9.00522C7.51562 9.95314 7.04167 11.1042 7.04167 12.4583C7.04167 13.8125 7.51562 14.9636 8.46354 15.9115C9.41146 16.8594 10.5625 17.3333 11.9167 17.3333ZM11.9167 15.3833C11.1042 15.3833 10.4135 15.099 9.84479 14.5302C9.27604 13.9615 8.99167 13.2708 8.99167 12.4583C8.99167 11.6458 9.27604 10.9552 9.84479 10.3865C10.4135 9.81772 11.1042 9.53334 11.9167 9.53334C12.7292 9.53334 13.4198 9.81772 13.9885 10.3865C14.5573 10.9552 14.8417 11.6458 14.8417 12.4583C14.8417 13.2708 14.5573 13.9615 13.9885 14.5302C13.4198 15.099 12.7292 15.3833 11.9167 15.3833ZM11.9167 20.5833C9.28056 20.5833 6.87917 19.8476 4.7125 18.3761C2.54583 16.9045 0.975 14.932 0 12.4583C0.975 9.98473 2.54583 8.01216 4.7125 6.54064C6.87917 5.06911 9.28056 4.33334 11.9167 4.33334C14.5528 4.33334 16.9542 5.06911 19.1208 6.54064C21.2875 8.01216 22.8583 9.98473 23.8333 12.4583C22.8583 14.932 21.2875 16.9045 19.1208 18.3761C16.9542 19.8476 14.5528 20.5833 11.9167 20.5833ZM11.9167 18.4167C13.9569 18.4167 15.8302 17.8795 17.5365 16.8052C19.2427 15.7309 20.5472 14.282 21.45 12.4583C20.5472 10.6347 19.2427 9.18577 17.5365 8.11147C15.8302 7.03716 13.9569 6.50001 11.9167 6.50001C9.87639 6.50001 8.00313 7.03716 6.29688 8.11147C4.59062 9.18577 3.28611 10.6347 2.38333 12.4583C3.28611 14.282 4.59062 15.7309 6.29688 16.8052C8.00313 17.8795 9.87639 18.4167 11.9167 18.4167Z" fill="#52616A"/>
</g>
</svg>
