<svg width="26" height="26" viewBox="0 0 26 26" fill="none" xmlns="http://www.w3.org/2000/svg">
<g id="Frame">
<path id="Vector" d="M2.16666 23.8333C2.16666 21.8292 2.43298 20.1184 2.96562 18.701C3.49826 17.2837 4.17986 16.1056 5.01041 15.1667C5.84097 14.2278 6.77083 13.501 7.8 12.9865C8.82916 12.4719 9.84027 12.1153 10.8333 11.9167V8.66667C8.35972 8.35973 6.29687 7.59688 4.64479 6.37813C2.99271 5.15938 2.16666 3.75556 2.16666 2.16667H23.8333C23.8333 3.75556 23.0073 5.15938 21.3552 6.37813C19.7031 7.59688 17.6403 8.35973 15.1667 8.66667V11.9167C16.1597 12.1153 17.1708 12.4719 18.2 12.9865C19.2292 13.501 20.159 14.2278 20.9896 15.1667C21.8201 16.1056 22.5017 17.2837 23.0344 18.701C23.567 20.1184 23.8333 21.8292 23.8333 23.8333H17.3333V21.6667H21.5312C21.2062 18.9222 20.1816 16.9361 18.4573 15.7083C16.733 14.4806 14.9139 13.8667 13 13.8667C11.0861 13.8667 9.26701 14.4806 7.54271 15.7083C5.8184 16.9361 4.79375 18.9222 4.46875 21.6667H8.66666V23.8333H2.16666ZM13 6.63542C14.6431 6.63542 16.1056 6.41424 17.3875 5.97188C18.6694 5.52952 19.6896 4.98334 20.4479 4.33334H5.55208C6.31041 4.98334 7.33055 5.52952 8.6125 5.97188C9.89444 6.41424 11.3569 6.63542 13 6.63542ZM13 23.8333C12.4042 23.8333 11.8941 23.6212 11.4698 23.1969C11.0455 22.7726 10.8333 22.2625 10.8333 21.6667C10.8333 21.3597 10.892 21.0799 11.0094 20.8271C11.1267 20.5743 11.2847 20.3486 11.4833 20.15C11.9167 19.7167 12.6479 19.2608 13.6771 18.7823C14.7062 18.3038 15.925 17.8208 17.3333 17.3333C16.8278 18.7417 16.3403 19.9604 15.8708 20.9896C15.4014 22.0188 14.95 22.75 14.5167 23.1833C14.3181 23.3819 14.0924 23.5399 13.8396 23.6573C13.5868 23.7747 13.3069 23.8333 13 23.8333Z" fill="#52616A"/>
</g>
</svg>
